# xmcd
#
# Track frame offsets: 
#        187
#        4375
#        18000
#        31412
#        47075
#        60400
#        72662
#        86200
#        100525
#        115450
#
# Disc length: 1687 seconds
#
# Revision: 0
# Processed by: cddbd v1.4b42PL0 Copyright (c) Steve Scherf et al.
# Submitted via: ExactAudioCopy v0.90a11
#
DISCID=7e06950a
DTITLE=Willie Nelson and Merle Haggard - The Best of Gospel
DYEAR=1900
DGENRE=
TTITLE0=By the Rivers of Babylon
TTITLE1=Kneel At the Feet of Jesus
TTITLE2=Family Bible
TTITLE3=Tell It To Jesus
TTITLE4=When God Comes And Gathers His Jewels
TTITLE5=Suppertime
TTITLE6=Where No One Stands Alone
TTITLE7=Why Me
TTITLE8=One Data At A Time
TTITLE9=Revive Us Again
EXTD=
EXTT0=
EXTT1=
EXTT2=
EXTT3=
EXTT4=
EXTT5=
EXTT6=
EXTT7=
EXTT8=
EXTT9=
PLAYORDER=
